<svg width="1143" height="128" viewBox="0 0 1143 128" fill="none" xmlns="http://www.w3.org/2000/svg">
<path d="M525.467 33.5811H534.292L559.297 99.4014H550.747L544.128 81.2916H515.723L509.104 99.4014H500.555L525.467 33.5811ZM541.463 73.9374L532.729 50.22L530.064 43.1415H529.696L527.122 50.22L518.389 73.9374H541.463ZM564.705 52.5182H572.151V59.5047H572.518C573.928 57.1146 576.042 55.1228 578.861 53.5294C581.742 51.8747 584.959 51.0473 588.514 51.0473C592.681 51.0473 596.481 52.1198 599.913 54.2648C603.345 56.4098 606.041 59.3821 608.003 63.1818C609.964 66.9815 610.944 71.2408 610.944 75.9598C610.944 80.74 609.964 85.03 608.003 88.8297C606.041 92.5681 603.345 95.5098 599.913 97.6547C596.481 99.7997 592.681 100.872 588.514 100.872C584.959 100.872 581.742 100.076 578.861 98.4821C576.042 96.8274 573.928 94.8356 572.518 92.5068H572.151L572.518 98.9417V119.258H564.705V52.5182ZM587.595 93.7938C590.291 93.7938 592.834 93.0583 595.225 91.5875C597.615 90.1167 599.515 88.033 600.924 85.3364C602.395 82.5786 603.13 79.453 603.13 75.9598C603.13 72.4665 602.395 69.3716 600.924 66.6751C599.515 63.9172 597.615 61.8029 595.225 60.332C592.834 58.8612 590.291 58.1258 587.595 58.1258C584.898 58.1258 582.355 58.8612 579.965 60.332C577.574 61.8029 575.675 63.8866 574.265 66.5831C572.855 69.2797 572.151 72.4052 572.151 75.9598C572.151 79.5143 572.855 82.6399 574.265 85.3364C575.675 88.033 577.574 90.1167 579.965 91.5875C582.355 93.0583 584.898 93.7938 587.595 93.7938ZM616.909 52.5182H624.356V59.5047H624.723C626.133 57.1146 628.247 55.1228 631.066 53.5294C633.947 51.8747 637.164 51.0473 640.719 51.0473C644.886 51.0473 648.686 52.1198 652.118 54.2648C655.55 56.4098 658.246 59.3821 660.207 63.1818C662.169 66.9815 663.149 71.2408 663.149 75.9598C663.149 80.74 662.169 85.03 660.207 88.8297C658.246 92.5681 655.55 95.5098 652.118 97.6547C648.686 99.7997 644.886 100.872 640.719 100.872C637.164 100.872 633.947 100.076 631.066 98.4821C628.247 96.8274 626.133 94.8356 624.723 92.5068H624.356L624.723 98.9417V119.258H616.909V52.5182ZM639.799 93.7938C642.496 93.7938 645.039 93.0583 647.429 91.5875C649.82 90.1167 651.719 88.033 653.129 85.3364C654.6 82.5786 655.335 79.453 655.335 75.9598C655.335 72.4665 654.6 69.3716 653.129 66.6751C651.719 63.9172 649.82 61.8029 647.429 60.332C645.039 58.8612 642.496 58.1258 639.799 58.1258C637.103 58.1258 634.56 58.8612 632.169 60.332C629.779 61.8029 627.879 63.8866 626.47 66.5831C625.06 69.2797 624.356 72.4052 624.356 75.9598C624.356 79.5143 625.06 82.6399 626.47 85.3364C627.879 88.033 629.779 90.1167 632.169 91.5875C634.56 93.0583 637.103 93.7938 639.799 93.7938ZM691.47 33.5811H711.326C718.068 33.5811 723.951 34.9906 728.977 37.8097C734.002 40.5676 737.863 44.4285 740.56 49.3926C743.256 54.3567 744.604 60.0563 744.604 66.4912C744.604 72.9262 743.256 78.6257 740.56 83.5898C737.863 88.5539 734.002 92.4455 728.977 95.2646C723.951 98.0225 718.068 99.4014 711.326 99.4014H691.47V33.5811ZM711.326 91.9552C719.11 91.9552 725.269 89.7183 729.804 85.2445C734.4 80.7707 736.699 74.5196 736.699 66.4912C736.699 58.4629 734.4 52.2118 729.804 47.7379C725.269 43.2641 719.11 41.0272 711.326 41.0272H699.192V91.9552H711.326ZM757.302 43.877C755.77 43.877 754.452 43.3254 753.349 42.2223C752.246 41.1191 751.694 39.8015 751.694 38.2694C751.694 36.7372 752.246 35.4503 753.349 34.4084C754.452 33.3053 755.77 32.7537 757.302 32.7537C758.834 32.7537 760.152 33.3053 761.255 34.4084C762.358 35.4503 762.909 36.7372 762.909 38.2694C762.909 39.8015 762.358 41.1191 761.255 42.2223C760.213 43.3254 758.895 43.877 757.302 43.877ZM753.441 52.5182H761.163V99.4014H753.441V52.5182ZM787.968 100.872C782.942 100.872 778.744 99.7078 775.374 97.379C772.003 94.9888 769.613 91.9552 768.203 88.2781L775.19 85.1526C776.354 87.9717 778.07 90.1473 780.338 91.6794C782.667 93.2116 785.21 93.9776 787.968 93.9776C790.909 93.9776 793.422 93.3954 795.506 92.231C797.589 91.0053 798.631 89.2893 798.631 87.083C798.631 85.1219 797.804 83.5591 796.149 82.3947C794.495 81.169 791.89 80.1272 788.335 79.2692L782.636 77.7983C778.897 76.8791 775.833 75.3163 773.443 73.11C771.053 70.9037 769.858 68.054 769.858 64.5607C769.858 61.8642 770.655 59.5047 772.248 57.4823C773.903 55.3986 776.078 53.8052 778.775 52.702C781.471 51.5989 784.382 51.0473 787.508 51.0473C791.614 51.0473 795.261 51.936 798.447 53.7132C801.696 55.4905 803.994 57.9726 805.342 61.1594L798.539 64.2849C796.456 60.1176 792.748 58.0339 787.416 58.0339C784.842 58.0339 782.575 58.6467 780.613 59.8724C778.714 61.0368 777.764 62.5383 777.764 64.3769C777.764 66.0929 778.438 67.5024 779.786 68.6056C781.134 69.6474 783.157 70.5054 785.853 71.1795L792.656 72.9262C797.252 74.0906 800.715 75.8372 803.044 78.166C805.373 80.4336 806.537 83.2221 806.537 86.5315C806.537 89.4119 805.71 91.9552 804.055 94.1615C802.4 96.3065 800.163 97.9612 797.344 99.1256C794.525 100.29 791.4 100.872 787.968 100.872ZM830.785 100.137C828.885 100.137 827.108 99.8304 825.453 99.2175C823.86 98.6047 822.512 97.7773 821.409 96.7355C820.183 95.571 819.264 94.2228 818.651 92.6906C818.038 91.1585 817.731 89.2893 817.731 87.083V59.5966H809.55V52.5182H817.731V39.2806H825.545V52.5182H836.944V59.5966H825.545V85.1526C825.545 87.7265 826.036 89.6264 827.016 90.8521C828.181 92.2004 829.866 92.8745 832.072 92.8745C833.849 92.8745 835.565 92.3536 837.22 91.3117V98.9417C836.301 99.3707 835.351 99.6772 834.37 99.861C833.451 100.045 832.256 100.137 830.785 100.137ZM844.594 52.5182H852.04V60.0563H852.408C853.327 57.4823 855.104 55.3679 857.739 53.7132C860.375 51.9973 863.133 51.1393 866.013 51.1393C868.158 51.1393 869.997 51.4457 871.529 52.0585V60.5159C869.568 59.5353 867.361 59.0451 864.91 59.0451C862.642 59.0451 860.559 59.6886 858.659 60.9755C856.759 62.2625 855.227 64.0092 854.062 66.2154C852.959 68.3604 852.408 70.6892 852.408 73.2019V99.4014H844.594V52.5182ZM881.825 43.877C880.292 43.877 878.975 43.3254 877.872 42.2223C876.769 41.1191 876.217 39.8015 876.217 38.2694C876.217 36.7372 876.769 35.4503 877.872 34.4084C878.975 33.3053 880.292 32.7537 881.825 32.7537C883.357 32.7537 884.674 33.3053 885.777 34.4084C886.881 35.4503 887.432 36.7372 887.432 38.2694C887.432 39.8015 886.881 41.1191 885.777 42.2223C884.736 43.3254 883.418 43.877 881.825 43.877ZM877.964 52.5182H885.686V99.4014H877.964V52.5182ZM919.937 100.872C916.382 100.872 913.164 100.076 910.284 98.4821C907.465 96.8274 905.351 94.8356 903.941 92.5068H903.573V99.4014H896.127V33.5811H903.941V52.9778L903.573 59.5047H903.941C905.351 57.1146 907.465 55.1228 910.284 53.5294C913.164 51.8747 916.382 51.0473 919.937 51.0473C924.104 51.0473 927.904 52.1198 931.336 54.2648C934.768 56.4098 937.464 59.3821 939.425 63.1818C941.386 66.9815 942.367 71.2408 942.367 75.9598C942.367 80.74 941.386 85.03 939.425 88.8297C937.464 92.5681 934.768 95.5098 931.336 97.6547C927.904 99.7997 924.104 100.872 919.937 100.872ZM919.017 93.7938C921.714 93.7938 924.257 93.0583 926.647 91.5875C929.037 90.1167 930.937 88.033 932.347 85.3364C933.818 82.5786 934.553 79.453 934.553 75.9598C934.553 72.4665 933.818 69.3716 932.347 66.6751C930.937 63.9172 929.037 61.8029 926.647 60.332C924.257 58.8612 921.714 58.1258 919.017 58.1258C916.321 58.1258 913.777 58.8612 911.387 60.332C908.997 61.8029 907.097 63.8866 905.688 66.5831C904.278 69.2797 903.573 72.4052 903.573 75.9598C903.573 79.5143 904.278 82.6399 905.688 85.3364C907.097 88.033 908.997 90.1167 911.387 91.5875C913.777 93.0583 916.321 93.7938 919.017 93.7938ZM966.147 100.872C960.509 100.872 956.188 99.2175 953.185 95.9081C950.243 92.5987 948.772 87.9717 948.772 82.027V52.5182H956.586V80.832C956.586 85.3058 957.597 88.5845 959.62 90.6682C961.642 92.7519 964.369 93.7938 967.801 93.7938C970.437 93.7938 972.766 93.089 974.788 91.6794C976.872 90.2699 978.465 88.4313 979.568 86.1638C980.733 83.8962 981.315 81.5061 981.315 78.9934V52.5182H989.129V99.4014H981.683V92.5987H981.315C980.028 94.9275 977.975 96.8887 975.156 98.4821C972.337 100.076 969.334 100.872 966.147 100.872ZM1017.3 100.137C1015.4 100.137 1013.62 99.8304 1011.97 99.2175C1010.37 98.6047 1009.02 97.7773 1007.92 96.7355C1006.7 95.571 1005.78 94.2228 1005.16 92.6906C1004.55 91.1585 1004.24 89.2893 1004.24 87.083V59.5966H996.063V52.5182H1004.24V39.2806H1012.06V52.5182H1023.46V59.5966H1012.06V85.1526C1012.06 87.7265 1012.55 89.6264 1013.53 90.8521C1014.69 92.2004 1016.38 92.8745 1018.59 92.8745C1020.36 92.8745 1022.08 92.3536 1023.73 91.3117V98.9417C1022.81 99.3707 1021.86 99.6772 1020.88 99.861C1019.96 100.045 1018.77 100.137 1017.3 100.137ZM1036.15 43.877C1034.62 43.877 1033.3 43.3254 1032.2 42.2223C1031.1 41.1191 1030.54 39.8015 1030.54 38.2694C1030.54 36.7372 1031.1 35.4503 1032.2 34.4084C1033.3 33.3053 1034.62 32.7537 1036.15 32.7537C1037.68 32.7537 1039 33.3053 1040.1 34.4084C1041.21 35.4503 1041.76 36.7372 1041.76 38.2694C1041.76 39.8015 1041.21 41.1191 1040.1 42.2223C1039.06 43.3254 1037.75 43.877 1036.15 43.877ZM1032.29 52.5182H1040.01V99.4014H1032.29V52.5182ZM1071.61 100.872C1067.01 100.872 1062.88 99.7691 1059.2 97.5628C1055.52 95.3565 1052.64 92.3536 1050.56 88.5539C1048.53 84.7542 1047.52 80.5562 1047.52 75.9598C1047.52 71.3634 1048.53 67.1653 1050.56 63.3657C1052.64 59.566 1055.52 56.563 1059.2 54.3567C1062.88 52.1505 1067.01 51.0473 1071.61 51.0473C1076.21 51.0473 1080.34 52.1505 1084.02 54.3567C1087.7 56.563 1090.55 59.566 1092.57 63.3657C1094.65 67.1653 1095.69 71.3634 1095.69 75.9598C1095.69 80.5562 1094.65 84.7542 1092.57 88.5539C1090.55 92.3536 1087.7 95.3565 1084.02 97.5628C1080.34 99.7691 1076.21 100.872 1071.61 100.872ZM1071.61 93.7938C1074.49 93.7938 1077.16 93.089 1079.61 91.6794C1082.12 90.2086 1084.11 88.1249 1085.58 85.4283C1087.11 82.7318 1087.88 79.5756 1087.88 75.9598C1087.88 72.3439 1087.11 69.1878 1085.58 66.4912C1084.11 63.7947 1082.12 61.7416 1079.61 60.332C1077.16 58.8612 1074.49 58.1258 1071.61 58.1258C1068.73 58.1258 1066.03 58.8612 1063.52 60.332C1061.01 61.7416 1058.98 63.7947 1057.45 66.4912C1055.98 69.1878 1055.25 72.3439 1055.25 75.9598C1055.25 79.5756 1055.98 82.7318 1057.45 85.4283C1058.98 88.1249 1061.01 90.2086 1063.52 91.6794C1066.03 93.089 1068.73 93.7938 1071.61 93.7938ZM1102.03 52.5182H1109.48V59.4128H1109.85C1111.13 57.0839 1113.19 55.1228 1116 53.5294C1118.82 51.8747 1121.83 51.0473 1125.01 51.0473C1130.65 51.0473 1134.94 52.702 1137.88 56.0114C1140.89 59.2596 1142.39 63.7027 1142.39 69.341V99.4014H1134.57V70.536C1134.57 66.1848 1133.53 63.0286 1131.45 61.0675C1129.36 59.1063 1126.51 58.1258 1122.9 58.1258C1120.39 58.1258 1118.12 58.8306 1116.1 60.2401C1114.13 61.6497 1112.6 63.5189 1111.5 65.8477C1110.4 68.1153 1109.85 70.5054 1109.85 73.0181V99.4014H1102.03V52.5182Z" fill="white"/>
<path d="M461.612 99.8663C457.157 99.8663 453.13 98.829 449.531 96.7545C445.992 94.6799 443.215 91.8122 441.202 88.1513C439.188 84.4293 438.182 80.2803 438.182 75.7041C438.182 71.311 439.127 67.284 441.019 63.6231C442.971 59.9011 445.687 56.9724 449.164 54.8368C452.642 52.6403 456.608 51.542 461.062 51.542C465.639 51.542 469.605 52.5487 472.96 54.5623C476.377 56.5758 478.97 59.3825 480.74 62.9824C482.509 66.5213 483.394 70.6093 483.394 75.2465C483.394 75.7956 483.364 76.3448 483.303 76.8939C483.242 77.4431 483.211 77.7481 483.211 77.8092H448.249C448.554 81.9582 450.049 85.1615 452.734 87.4191C455.419 89.6767 458.469 90.8055 461.886 90.8055C467.133 90.8055 471.161 88.3648 473.967 83.4836L482.57 87.6021C480.557 91.3241 477.75 94.3138 474.15 96.5714C470.611 98.768 466.432 99.8663 461.612 99.8663ZM473.144 70.1212C473.021 68.6568 472.533 67.162 471.679 65.6366C470.825 64.1112 469.483 62.8299 467.652 61.7926C465.883 60.6943 463.656 60.1452 460.971 60.1452C457.981 60.1452 455.388 61.0604 453.191 62.8909C451.056 64.7213 449.592 67.1314 448.798 70.1212H473.144Z" fill="white"/>
<path d="M416.087 99.8663C410.9 99.8663 406.599 98.6765 403.182 96.2968C399.826 93.8562 397.446 90.8055 396.043 87.1445L405.012 83.3006C406.05 85.8022 407.544 87.6937 409.497 88.975C411.51 90.2563 413.707 90.897 416.087 90.897C418.588 90.897 420.632 90.4394 422.219 89.5241C423.805 88.5479 424.598 87.2971 424.598 85.7717C424.598 84.3073 423.958 83.1175 422.676 82.2023C421.395 81.226 419.29 80.3718 416.361 79.6396L410.138 78.1752C406.721 77.382 403.761 75.9177 401.26 73.7821C398.819 71.5856 397.599 68.7484 397.599 65.2705C397.599 61.0604 399.338 57.7351 402.816 55.2944C406.294 52.7928 410.565 51.542 415.629 51.542C419.839 51.542 423.561 52.4267 426.795 54.1962C430.09 55.9656 432.469 58.5283 433.934 61.8841L425.056 65.6366C424.202 63.7451 422.89 62.3417 421.12 61.4265C419.351 60.5113 417.429 60.0537 415.354 60.0537C413.341 60.0537 411.571 60.5113 410.046 61.4265C408.521 62.2807 407.758 63.44 407.758 64.9044C407.758 66.1857 408.277 67.223 409.314 68.0162C410.412 68.8094 412.121 69.4805 414.439 70.0297L421.212 71.6771C425.788 72.8364 429.205 74.6058 431.462 76.9854C433.72 79.304 434.849 82.1107 434.849 85.4056C434.849 88.0903 434.025 90.5309 432.378 92.7274C430.791 94.924 428.564 96.6629 425.696 97.9443C422.89 99.2256 419.686 99.8663 416.087 99.8663Z" fill="white"/>
<path d="M367.921 99.8663C364.688 99.8663 361.759 99.2256 359.135 97.9443C356.573 96.6019 354.529 94.7715 353.003 92.4529C351.539 90.0733 350.807 87.3886 350.807 84.3988C350.807 79.6396 352.576 75.8872 356.115 73.1415C359.715 70.3958 364.261 69.0229 369.752 69.0229C374.572 69.0229 378.691 69.8466 382.108 71.4941V69.5721C382.108 66.8264 381.009 64.5688 378.813 62.7993C376.677 60.9689 374.084 60.0537 371.033 60.0537C366.396 60.0537 362.674 61.9451 359.867 65.7281L352.18 60.4197C354.315 57.552 356.969 55.3555 360.142 53.8301C363.376 52.3047 367.006 51.542 371.033 51.542C377.684 51.542 382.809 53.2199 386.409 56.5758C390.07 59.8706 391.901 64.5383 391.901 70.5788V98.4019H382.108V92.819H381.558C380.094 94.8935 378.233 96.6019 375.976 97.9443C373.718 99.2256 371.033 99.8663 367.921 99.8663ZM369.569 91.5376C371.826 91.5376 373.901 90.9885 375.792 89.8902C377.745 88.7309 379.27 87.236 380.369 85.4056C381.528 83.5141 382.108 81.5006 382.108 79.3651C378.874 77.5956 375.426 76.7109 371.765 76.7109C368.41 76.7109 365.786 77.4431 363.894 78.9074C362.003 80.3718 361.057 82.2328 361.057 84.4904C361.057 86.5649 361.881 88.2733 363.528 89.6157C365.237 90.897 367.25 91.5376 369.569 91.5376Z" fill="white"/>
<path d="M325.684 99.8661C322.389 99.8661 319.43 99.1644 316.806 97.7611C314.244 96.3577 312.322 94.5882 311.04 92.4527H310.491V98.4017H300.973V32.8711H311.04V52.5486L310.491 58.8637H311.04C312.322 56.7892 314.244 55.0502 316.806 53.6469C319.43 52.2435 322.389 51.5418 325.684 51.5418C329.589 51.5418 333.189 52.5791 336.484 54.6536C339.84 56.7281 342.494 59.6264 344.446 63.3483C346.46 67.0093 347.466 71.1278 347.466 75.704C347.466 80.2801 346.46 84.3987 344.446 88.0596C342.494 91.7205 339.84 94.6188 336.484 96.7543C333.189 98.8288 329.589 99.8661 325.684 99.8661ZM323.945 90.6222C326.325 90.6222 328.521 90.0121 330.535 88.7918C332.609 87.5715 334.257 85.8325 335.477 83.575C336.758 81.2564 337.399 78.6327 337.399 75.704C337.399 72.7752 336.758 70.1821 335.477 67.9245C334.257 65.6059 332.609 63.8364 330.535 62.6161C328.521 61.3958 326.325 60.7857 323.945 60.7857C321.565 60.7857 319.338 61.3958 317.264 62.6161C315.25 63.8364 313.603 65.5754 312.322 67.833C311.101 70.0905 310.491 72.7142 310.491 75.704C310.491 78.6937 311.101 81.3174 312.322 83.575C313.603 85.8325 315.25 87.5715 317.264 88.7918C319.338 90.0121 321.565 90.6222 323.945 90.6222Z" fill="white"/>
<path d="M273.192 99.8667C268.738 99.8667 264.711 98.8295 261.111 96.7549C257.572 94.6804 254.795 91.8127 252.782 88.1518C250.768 84.4298 249.762 80.2808 249.762 75.7046C249.762 71.3115 250.707 67.2845 252.599 63.6235C254.551 59.9016 257.267 56.9729 260.745 54.8373C264.222 52.6408 268.188 51.5425 272.643 51.5425C277.219 51.5425 281.185 52.5492 284.541 54.5627C287.957 56.5763 290.551 59.383 292.32 62.9829C294.089 66.5218 294.974 70.6098 294.974 75.247C294.974 75.7961 294.944 76.3453 294.883 76.8944C294.822 77.4436 294.791 77.7486 294.791 77.8096H259.829C260.134 81.9587 261.629 85.162 264.314 87.4196C266.999 89.6772 270.049 90.8059 273.466 90.8059C278.714 90.8059 282.741 88.3653 285.547 83.4841L294.15 87.6026C292.137 91.3246 289.33 94.3143 285.73 96.5719C282.191 98.7685 278.012 99.8667 273.192 99.8667ZM284.724 70.1217C284.602 68.6573 284.113 67.1624 283.259 65.6371C282.405 64.1117 281.063 62.8303 279.232 61.7931C277.463 60.6948 275.236 60.1457 272.551 60.1457C269.561 60.1457 266.968 61.0609 264.772 62.8914C262.636 64.7218 261.172 67.1319 260.378 70.1217H284.724Z" fill="white"/>
<path d="M221.822 53.0066H231.341V59.7794H231.89C232.866 57.4608 234.636 55.5388 237.198 54.0134C239.761 52.427 242.384 51.6338 245.069 51.6338C247.266 51.6338 249.066 51.9389 250.469 52.549V63.0742C248.395 62.0369 246.076 61.5183 243.513 61.5183C240.218 61.5183 237.442 62.7996 235.185 65.3623C232.988 67.8639 231.89 70.9452 231.89 74.6061V98.4022H221.822V53.0066Z" fill="white"/>
<path d="M207.452 45.3184C205.561 45.3184 203.944 44.6777 202.602 43.3964C201.32 42.0541 200.68 40.4371 200.68 38.5457C200.68 36.6542 201.32 35.0678 202.602 33.7865C203.944 32.4441 205.561 31.7729 207.452 31.7729C209.344 31.7729 210.93 32.4441 212.212 33.7865C213.554 35.0678 214.225 36.6542 214.225 38.5457C214.225 40.4371 213.554 42.0541 212.212 43.3964C210.93 44.6777 209.344 45.3184 207.452 45.3184ZM202.419 53.0063H212.486V98.4018H202.419V53.0063Z" fill="white"/>
<path d="M156.562 32.8711H196.375V42.6641H166.813V61.5179H193.446V71.2193H166.813V98.4017H156.562V32.8711Z" fill="white"/>
<path d="M31.6562 118.567C36.7084 120.601 42.1896 121.807 47.9447 122.008C55.7335 122.28 63.1403 120.67 69.7616 117.611C61.8214 114.492 54.6303 109.929 48.4929 104.257C44.5147 110.627 38.6305 115.658 31.6562 118.567Z" fill="#FF9100"/>
<path d="M48.4923 104.259C34.4827 91.302 25.9838 72.5484 26.7021 51.979C26.7254 51.311 26.7607 50.6435 26.8019 49.9762C24.2928 49.3273 21.6734 48.9313 18.9777 48.8371C15.1191 48.7024 11.3823 49.181 7.85452 50.1744C4.11472 56.7255 1.85787 64.242 1.57672 72.2932C0.851127 93.0713 13.4253 111.227 31.6556 118.569C38.63 115.66 44.5139 110.635 48.4923 104.259Z" fill="#FFC400"/>
<path d="M48.4937 104.258C51.7509 99.0459 53.7258 92.9348 53.9557 86.3506C54.5605 69.0316 42.9175 54.133 26.8033 49.9757C26.762 50.643 26.7268 51.3105 26.7035 51.9785C25.9852 72.5479 34.484 91.3015 48.4937 104.258Z" fill="#FF9100"/>
<path d="M52.1543 1.29291C42.9766 8.64534 35.7294 18.3402 31.3447 29.5084C28.8344 35.9054 27.2569 42.7768 26.7964 49.9798C42.9106 54.1372 54.5536 69.0358 53.9488 86.3548C53.7189 92.939 51.7382 99.044 48.4868 104.263C54.6239 109.941 61.8153 114.497 69.7555 117.616C85.693 110.249 97.0006 94.3967 97.6554 75.6462C98.0796 63.4978 93.4121 52.6704 86.8167 43.5311C79.8515 33.8654 52.1543 1.29291 52.1543 1.29291Z" fill="#DD2C00"/>
<g filter="url(#filter0_d_47_1423)">
<circle cx="100" cy="90" r="30" fill="white"/>
<path fill-rule="evenodd" clip-rule="evenodd" d="M90.2498 100.5C89.0072 100.5 87.9998 99.4926 87.9998 98.25C87.9998 97.0074 89.0072 96 90.2498 96H91.7498C92.9925 96 93.9998 94.9926 93.9998 93.75C93.9998 92.5074 92.9925 91.5 91.7498 91.5H88.7498C87.5072 91.5 86.4998 90.4926 86.4998 89.25C86.4998 88.0074 87.5072 87 88.7498 87H93.9998C94.8282 87 95.4998 86.3284 95.4998 85.5C95.4998 84.6716 94.8282 84 93.9998 84C92.7572 84 91.7498 82.9926 91.7498 81.75C91.7498 80.5074 92.7572 79.5 93.9998 79.5H116.455C117.395 79.5 118.108 80.382 117.946 81.3465L114.946 99.1965C114.834 99.9371 114.204 100.489 113.455 100.5H90.2498ZM96.7675 97.5H112.198L114.712 82.5H99.25L96.7675 97.5ZM110.293 95.2499H99.4207L101.158 84.7499H112.054L110.293 95.2499ZM84.25 100.5C83.0074 100.5 82 99.4925 82 98.2499C82 97.0072 83.0074 95.9999 84.25 95.9999C85.4926 95.9999 86.5 97.0072 86.5 98.2499C86.5 99.4925 85.4926 100.5 84.25 100.5Z" fill="#1F1F1F"/>
</g>
<defs>
<filter id="filter0_d_47_1423" x="68" y="58.6704" width="64" height="64" filterUnits="userSpaceOnUse" color-interpolation-filters="sRGB">
<feFlood flood-opacity="0" result="BackgroundImageFix"/>
<feColorMatrix in="SourceAlpha" type="matrix" values="0 0 0 0 0 0 0 0 0 0 0 0 0 0 0 0 0 0 127 0" result="hardAlpha"/>
<feOffset dy="0.670408"/>
<feGaussianBlur stdDeviation="1"/>
<feComposite in2="hardAlpha" operator="out"/>
<feColorMatrix type="matrix" values="0 0 0 0 0 0 0 0 0 0 0 0 0 0 0 0 0 0 0.3 0"/>
<feBlend mode="normal" in2="BackgroundImageFix" result="effect1_dropShadow_47_1423"/>
<feBlend mode="normal" in="SourceGraphic" in2="effect1_dropShadow_47_1423" result="shape"/>
</filter>
</defs>
</svg>
