<?xml version="1.0" encoding="UTF-8"?>
<svg version="1.1" xmlns="http://www.w3.org/2000/svg" width="1024" height="1024">
<path d="M0 0 C1.31314682 -0.00705963 2.62629364 -0.01411926 3.97923279 -0.02139282 C8.19970246 -0.04093958 12.42011431 -0.04608521 16.640625 -0.046875 C17.35990299 -0.04716957 18.07918098 -0.04746414 18.82025528 -0.04776764 C40.31556838 -0.0491905 61.56639756 0.15136694 82.890625 3.203125 C83.6036377 3.30258423 84.31665039 3.40204346 85.05126953 3.5045166 C136.49110975 10.6858371 185.45206129 25.05137528 232.890625 46.203125 C233.78507324 46.59999512 234.67952148 46.99686523 235.60107422 47.40576172 C249.18225982 53.47908559 262.03255283 60.73954473 274.890625 68.203125 C276.49606627 69.12765189 278.1015333 70.05213404 279.70703125 70.9765625 C287.9748373 75.7621866 296.03733394 80.75569895 303.890625 86.203125 C304.51372559 86.63318848 305.13682617 87.06325195 305.77880859 87.50634766 C320.83369904 97.91837798 335.4429863 108.84402302 349.28710938 120.82617188 C350.94968831 122.25384319 352.62884245 123.6597684 354.3125 125.0625 C362.4461377 131.87337401 370.00771972 139.11195829 377.41943359 146.69921875 C380.68535477 150.03776412 384.00688832 153.31860318 387.34375 156.5859375 C393.92071048 163.05171624 400.22029256 169.49972539 405.93359375 176.75 C407.75647379 179.0349674 409.66031761 181.17971699 411.640625 183.328125 C417.25958621 189.58382734 422.2443256 196.35050117 427.28857422 203.0703125 C428.73402936 204.994649 430.18859511 206.91171912 431.64453125 208.828125 C449.62310801 232.70388852 464.44184031 258.56855804 477.890625 285.203125 C478.36000488 286.13108887 478.82938477 287.05905273 479.31298828 288.01513672 C503.54487919 336.30068046 518.70988943 388.97721148 526.203125 442.390625 C526.35031982 443.43710205 526.49751465 444.4835791 526.64916992 445.56176758 C527.11333033 449.1042159 527.51715861 452.65023356 527.890625 456.203125 C527.97676056 457.00679504 528.06289612 457.81046509 528.15164185 458.63848877 C529.91657383 475.62042852 530.25467092 492.54766627 530.20868301 509.60852051 C530.20303927 511.73543371 530.20022107 513.86233894 530.19760132 515.98925781 C530.16138501 536.21291642 529.76011954 556.15055491 526.890625 576.203125 C526.64119141 578.08161133 526.64119141 578.08161133 526.38671875 579.99804688 C514.94064559 665.50445264 482.25297533 746.78704859 421.890625 828.203125 C421.06957275 829.23397217 421.06957275 829.23397217 420.23193359 830.28564453 C414.30649475 837.72511702 408.29542773 845.04341224 401.859375 852.05078125 C400.03359179 854.04682599 398.27112435 856.08288166 396.515625 858.140625 C391.91654081 863.42742272 386.87536637 868.28455276 381.890625 873.203125 C379.077322 876.0026373 376.2842065 878.82023546 373.5078125 881.65625 C367.04203376 888.23321048 360.59402461 894.53279256 353.34375 900.24609375 C351.0587826 902.06897379 348.91403301 903.97281761 346.765625 905.953125 C340.50992266 911.57208621 333.74324883 916.5568256 327.0234375 921.60107422 C325.099101 923.04652936 323.18203088 924.50109511 321.265625 925.95703125 C297.38986148 943.93560801 271.52519196 958.75434031 244.890625 972.203125 C243.96266113 972.67250488 243.03469727 973.14188477 242.07861328 973.62548828 C173.75030326 1007.91575461 97.25734698 1024.73066031 21.00889969 1024.52118301 C18.92047295 1024.51553672 16.83205435 1024.51271995 14.74362183 1024.51010132 C-5.68589591 1024.47287342 -25.84183573 1024.01084519 -46.109375 1021.203125 C-48.01348145 1020.95369141 -48.01348145 1020.95369141 -49.95605469 1020.69921875 C-102.27527408 1013.72848634 -153.49983778 999.11440547 -201.109375 976.203125 C-202.16688965 975.69555664 -203.2244043 975.18798828 -204.31396484 974.66503906 C-243.52829408 955.72407023 -280.68556664 932.18752304 -313.5703125 903.53173828 C-315.20406169 902.12138563 -316.85735824 900.73689086 -318.515625 899.35546875 C-326.65574951 892.54192487 -334.22182234 885.29904916 -341.63818359 877.70703125 C-344.90410477 874.36848588 -348.22563832 871.08764682 -351.5625 867.8203125 C-358.13946048 861.35453376 -364.43904256 854.90652461 -370.15234375 847.65625 C-371.97522379 845.3712826 -373.87906761 843.22653301 -375.859375 841.078125 C-381.47833621 834.82242266 -386.4630756 828.05574883 -391.50732422 821.3359375 C-392.95277936 819.411601 -394.40734511 817.49453088 -395.86328125 815.578125 C-413.84185801 791.70236148 -428.66059031 765.83769196 -442.109375 739.203125 C-442.81344482 737.8111792 -442.81344482 737.8111792 -443.53173828 736.39111328 C-478.32866877 667.05320171 -494.63456182 590.03995836 -494.421875 512.765625 C-494.41965233 511.33719896 -494.41747582 509.90877285 -494.41534424 508.48034668 C-494.3728565 487.92752254 -494.07595284 467.58359346 -491.109375 447.203125 C-491.0075592 446.49764526 -490.90574341 445.79216553 -490.80084229 445.06530762 C-483.31718516 393.55609631 -469.39118616 344.74600123 -448.109375 297.203125 C-447.71395508 296.31302734 -447.31853516 295.42292969 -446.91113281 294.50585938 C-441.25318957 281.8516421 -434.5905706 269.83465757 -427.63916016 257.84960938 C-426.2941965 255.52286088 -424.96896387 253.18659961 -423.65234375 250.84375 C-409.50521255 225.90368314 -392.26654502 202.34942347 -373.43798828 180.7421875 C-372.02763563 179.10843831 -370.64314086 177.45514176 -369.26171875 175.796875 C-362.44817487 167.65675049 -355.20529916 160.09067766 -347.61328125 152.67431641 C-344.27473588 149.40839523 -340.99389682 146.08686168 -337.7265625 142.75 C-331.26078376 136.17303952 -324.81277461 129.87345744 -317.5625 124.16015625 C-315.2775326 122.33727621 -313.13278301 120.43343239 -310.984375 118.453125 C-304.72867266 112.83416379 -297.96199883 107.8494244 -291.2421875 102.80517578 C-289.317851 101.35972064 -287.40078088 99.90515489 -285.484375 98.44921875 C-261.60861148 80.47064199 -235.74394196 65.65190969 -209.109375 52.203125 C-207.7174292 51.49905518 -207.7174292 51.49905518 -206.29736328 50.78076172 C-143.51312136 19.27276195 -70.44710605 0.25244786 0 0 Z " fill="#324D5A" transform="translate(494.109375,-0.203125)"/>
<path d="M0 0 C1.31314682 -0.00705963 2.62629364 -0.01411926 3.97923279 -0.02139282 C8.19970246 -0.04093958 12.42011431 -0.04608521 16.640625 -0.046875 C17.35990299 -0.04716957 18.07918098 -0.04746414 18.82025528 -0.04776764 C40.31556838 -0.0491905 61.56639756 0.15136694 82.890625 3.203125 C83.6036377 3.30258423 84.31665039 3.40204346 85.05126953 3.5045166 C136.49110975 10.6858371 185.45206129 25.05137528 232.890625 46.203125 C233.78507324 46.59999512 234.67952148 46.99686523 235.60107422 47.40576172 C249.18225982 53.47908559 262.03255283 60.73954473 274.890625 68.203125 C276.49606627 69.12765189 278.1015333 70.05213404 279.70703125 70.9765625 C287.9748373 75.7621866 296.03733394 80.75569895 303.890625 86.203125 C304.51372559 86.63318848 305.13682617 87.06325195 305.77880859 87.50634766 C320.83369904 97.91837798 335.4429863 108.84402302 349.28710938 120.82617188 C350.94968831 122.25384319 352.62884245 123.6597684 354.3125 125.0625 C362.4461377 131.87337401 370.00771972 139.11195829 377.41943359 146.69921875 C380.68535477 150.03776412 384.00688832 153.31860318 387.34375 156.5859375 C393.92071048 163.05171624 400.22029256 169.49972539 405.93359375 176.75 C407.75647379 179.0349674 409.66031761 181.17971699 411.640625 183.328125 C417.25958621 189.58382734 422.2443256 196.35050117 427.28857422 203.0703125 C428.73402936 204.994649 430.18859511 206.91171912 431.64453125 208.828125 C449.62310801 232.70388852 464.44184031 258.56855804 477.890625 285.203125 C478.36000488 286.13108887 478.82938477 287.05905273 479.31298828 288.01513672 C503.54487919 336.30068046 518.70988943 388.97721148 526.203125 442.390625 C526.35031982 443.43710205 526.49751465 444.4835791 526.64916992 445.56176758 C527.11333033 449.1042159 527.51715861 452.65023356 527.890625 456.203125 C527.97676056 457.00679504 528.06289612 457.81046509 528.15164185 458.63848877 C529.91657383 475.62042852 530.25467092 492.54766627 530.20868301 509.60852051 C530.20303927 511.73543371 530.20022107 513.86233894 530.19760132 515.98925781 C530.16138501 536.21291642 529.76011954 556.15055491 526.890625 576.203125 C526.64119141 578.08161133 526.64119141 578.08161133 526.38671875 579.99804688 C514.94064559 665.50445264 482.25297533 746.78704859 421.890625 828.203125 C421.06957275 829.23397217 421.06957275 829.23397217 420.23193359 830.28564453 C414.30649475 837.72511702 408.29542773 845.04341224 401.859375 852.05078125 C400.03359179 854.04682599 398.27112435 856.08288166 396.515625 858.140625 C391.91654081 863.42742272 386.87536637 868.28455276 381.890625 873.203125 C379.077322 876.0026373 376.2842065 878.82023546 373.5078125 881.65625 C367.05633249 888.21866589 360.62240348 894.50730269 353.390625 900.2109375 C350.85214185 902.23379126 348.43036508 904.34712486 346.015625 906.515625 C337.43815494 914.203125 337.43815494 914.203125 334.890625 914.203125 C334.89022482 913.57427032 334.88982463 912.94541564 334.88941232 912.29750476 C334.84574549 843.84513428 334.79838126 775.39276676 334.73164368 706.94041443 C334.73064811 705.91818749 334.72965254 704.89596054 334.72862681 703.84275703 C334.70696917 681.62796557 334.68464654 659.41317483 334.66163872 637.19838474 C334.65036003 626.30453852 334.63922831 615.41069215 334.62817383 604.5168457 C334.62707126 603.43276674 334.6259687 602.34868778 334.62483272 601.23175793 C334.58915283 566.08235585 334.56318152 530.93295473 334.54223531 495.78354104 C334.52066237 459.66833069 334.4893139 423.55314173 334.44563387 387.43795103 C334.43947146 382.33901985 334.43342102 377.24008854 334.42743874 372.14115715 C334.42625785 371.13759671 334.42507697 370.13403627 334.42386031 369.1000649 C334.40512582 352.93390361 334.39672168 336.7677526 334.39216376 320.60158178 C334.38736365 304.3561574 334.37172062 288.11077228 334.34495934 271.86536897 C334.32938339 262.20914029 334.32217133 252.55298905 334.32685571 242.89674849 C334.32916512 236.44867279 334.32065147 230.00067035 334.30330089 223.55261772 C334.29372168 219.87711895 334.28888301 216.20178205 334.29722937 212.52627654 C334.30611042 208.56700838 334.2918805 204.60801463 334.27538586 200.64876652 C334.2848009 198.93709902 334.2848009 198.93709902 334.29440615 197.19085237 C334.2208066 187.64003476 332.63601116 180.08905456 325.99609375 172.99609375 C319.39042777 167.37086057 311.97449993 165.05514461 303.45994568 165.04922485 C302.31512249 165.04265147 302.31512249 165.04265147 301.14717156 165.0359453 C298.58175446 165.02255766 296.01637173 165.01637845 293.45092773 165.01025391 C291.61451563 165.00235275 289.77810508 164.99408379 287.94169617 164.98547363 C281.90255212 164.95924949 275.86340113 164.94394305 269.82421875 164.9296875 C267.74453286 164.9243275 265.66484701 164.91894999 263.58516121 164.91355515 C254.93207494 164.89192358 246.27899053 164.87318824 237.62588406 164.86193275 C225.23077682 164.84570352 212.83598356 164.81255368 200.44099468 164.75553191 C191.72322794 164.71679695 183.00554504 164.69729569 174.28769451 164.69201219 C169.08267472 164.6883629 163.87798977 164.67638676 158.67306328 164.64390945 C153.77198541 164.61376732 148.87144391 164.60753895 143.97029305 164.61929321 C142.17646914 164.61951345 140.38261992 164.61124982 138.58888245 164.59363937 C129.05453884 164.50516874 121.04961353 164.61156972 112.890625 170.203125 C111.818125 170.88375 110.745625 171.564375 109.640625 172.265625 C103.3537695 178.0537958 100.5532382 186.33628708 100.19702148 194.65795898 C100.17636121 196.70480379 100.18752636 198.74709615 100.22387505 200.79372978 C100.26287246 203.01493148 100.2636785 205.2335878 100.25611877 207.45509338 C100.24687898 212.18401571 100.28534452 216.91193174 100.328125 221.640625 C100.58308598 252.39509476 99.36254075 281.7107406 79.890625 307.203125 C79.49391602 307.7285791 79.09720703 308.2540332 78.68847656 308.79541016 C61.81087427 330.86461005 37.20010979 344.1274106 9.890625 348.203125 C3.79671807 348.79598646 -2.30707913 348.71440032 -8.42260742 348.65722656 C-10.15937778 348.65609411 -11.89615005 348.65673966 -13.63291931 348.65899658 C-18.28058065 348.66012918 -22.92781638 348.6368598 -27.57538009 348.60870075 C-32.4573198 348.58344047 -37.33927272 348.58132592 -42.2212677 348.57659912 C-51.43596221 348.56424087 -60.6504635 348.53151763 -69.8650735 348.49120116 C-80.36830984 348.44625885 -90.87155614 348.42444032 -101.37486494 348.40441942 C-122.95314218 348.36277742 -144.53124634 348.29256675 -166.109375 348.203125 C-166.09124756 349.078479 -166.07312012 349.95383301 -166.05444336 350.85571289 C-166.03329468 352.59195923 -166.03329468 352.59195923 -166.01171875 354.36328125 C-165.99359131 355.50676025 -165.97546387 356.65023926 -165.95678711 357.82836914 C-166.22096418 363.67112059 -167.87459473 368.65589914 -171.7578125 373.08203125 C-176.39058178 377.2798462 -180.87494045 379.42550633 -187.19995117 379.52539062 C-188.18835495 379.54460571 -189.17675873 379.5638208 -190.19511414 379.58361816 C-191.78269279 379.5963678 -191.78269279 379.5963678 -193.40234375 379.609375 C-194.50355057 379.62077515 -195.60475739 379.63217529 -196.73933411 379.6439209 C-199.06845271 379.66279225 -201.39762437 379.6758775 -203.72680664 379.68359375 C-207.26740254 379.70296376 -210.80565399 379.76501109 -214.34570312 379.828125 C-216.61456962 379.84119089 -218.88345265 379.85168955 -221.15234375 379.859375 C-222.20060837 379.8840686 -223.24887299 379.90876221 -224.3289032 379.9342041 C-231.93045788 379.8887673 -237.12539364 377.93306417 -243.109375 373.203125 C-248.05117269 367.88157646 -248.25732559 362.4074882 -248.171875 355.453125 C-248.16736328 354.75574219 -248.16285156 354.05835938 -248.15820312 353.33984375 C-248.1464752 351.62756697 -248.12854153 349.91533467 -248.109375 348.203125 C-252.42282895 348.25542569 -256.73434544 348.35060492 -261.046875 348.453125 C-262.25923828 348.46730469 -263.47160156 348.48148437 -264.72070312 348.49609375 C-272.06140378 348.69502873 -277.72085904 349.50113842 -284.109375 353.203125 C-284.91890625 353.66074219 -285.7284375 354.11835938 -286.5625 354.58984375 C-292.72253522 359.0491736 -296.51486812 364.72572095 -298.109375 372.203125 C-298.20298762 375.20187507 -298.24157566 378.17693458 -298.23242283 381.17554855 C-298.2341536 382.55765199 -298.2341536 382.55765199 -298.23591933 383.9676767 C-298.23858173 387.07797665 -298.23406687 390.1882256 -298.22962952 393.29852295 C-298.23006529 395.54174189 -298.23094032 397.78496079 -298.23221868 400.02817941 C-298.23446234 406.21020304 -298.23044409 412.39220947 -298.22544062 418.57423091 C-298.22157634 424.55069007 -298.22240034 430.52714802 -298.22312246 436.50360798 C-298.22443721 448.73155142 -298.22109174 460.95948946 -298.21510506 473.18743134 C-298.20919129 485.29744239 -298.20533977 497.4074512 -298.20425224 509.51746368 C-298.2041835 510.26997503 -298.20411476 511.02248637 -298.20404394 511.79780109 C-298.20370562 515.61930964 -298.20340423 519.44081819 -298.20311707 523.26232675 C-298.20101576 550.34138994 -298.19427589 577.42045019 -298.18481445 604.49951172 C-298.17563248 630.80908187 -298.16854766 657.11865122 -298.16430664 683.42822266 C-298.16410935 684.64434204 -298.16410935 684.64434204 -298.16390808 685.88502949 C-298.16258957 694.02675716 -298.16131376 702.16848484 -298.16006922 710.31021253 C-298.15753289 726.89636325 -298.15471164 743.48251391 -298.15171814 760.06866455 C-298.15158085 760.83129588 -298.15144356 761.5939272 -298.15130211 762.37966857 C-298.14209895 813.32082196 -298.12623268 864.26197363 -298.109375 915.203125 C-301.8862701 913.41905893 -304.84548422 911.05001683 -307.984375 908.328125 C-309.1497297 907.32681141 -310.31509463 906.32550973 -311.48046875 905.32421875 C-312.07972168 904.80714355 -312.67897461 904.29006836 -313.29638672 903.75732422 C-315.04645739 902.25706164 -316.81100881 900.77621579 -318.58203125 899.30078125 C-326.69879279 892.50495368 -334.2423312 885.27805455 -341.63818359 877.70703125 C-344.90410477 874.36848588 -348.22563832 871.08764682 -351.5625 867.8203125 C-358.13946048 861.35453376 -364.43904256 854.90652461 -370.15234375 847.65625 C-371.97522379 845.3712826 -373.87906761 843.22653301 -375.859375 841.078125 C-381.47833621 834.82242266 -386.4630756 828.05574883 -391.50732422 821.3359375 C-392.95277936 819.411601 -394.40734511 817.49453088 -395.86328125 815.578125 C-413.84185801 791.70236148 -428.66059031 765.83769196 -442.109375 739.203125 C-442.81344482 737.8111792 -442.81344482 737.8111792 -443.53173828 736.39111328 C-478.32866877 667.05320171 -494.63456182 590.03995836 -494.421875 512.765625 C-494.41965233 511.33719896 -494.41747582 509.90877285 -494.41534424 508.48034668 C-494.3728565 487.92752254 -494.07595284 467.58359346 -491.109375 447.203125 C-491.0075592 446.49764526 -490.90574341 445.79216553 -490.80084229 445.06530762 C-483.31718516 393.55609631 -469.39118616 344.74600123 -448.109375 297.203125 C-447.71395508 296.31302734 -447.31853516 295.42292969 -446.91113281 294.50585938 C-441.25318957 281.8516421 -434.5905706 269.83465757 -427.63916016 257.84960938 C-426.2941965 255.52286088 -424.96896387 253.18659961 -423.65234375 250.84375 C-409.50521255 225.90368314 -392.26654502 202.34942347 -373.43798828 180.7421875 C-372.02763563 179.10843831 -370.64314086 177.45514176 -369.26171875 175.796875 C-362.44817487 167.65675049 -355.20529916 160.09067766 -347.61328125 152.67431641 C-344.27473588 149.40839523 -340.99389682 146.08686168 -337.7265625 142.75 C-331.26078376 136.17303952 -324.81277461 129.87345744 -317.5625 124.16015625 C-315.2775326 122.33727621 -313.13278301 120.43343239 -310.984375 118.453125 C-304.72867266 112.83416379 -297.96199883 107.8494244 -291.2421875 102.80517578 C-289.317851 101.35972064 -287.40078088 99.90515489 -285.484375 98.44921875 C-261.60861148 80.47064199 -235.74394196 65.65190969 -209.109375 52.203125 C-207.7174292 51.49905518 -207.7174292 51.49905518 -206.29736328 50.78076172 C-143.51312136 19.27276195 -70.44710605 0.25244786 0 0 Z " fill="#FEBD0A" transform="translate(494.109375,-0.203125)"/>
<path d="M0 0 C1.5700937 -0.01169993 1.5700937 -0.01169993 3.17190647 -0.02363622 C6.66111047 -0.04349696 10.14921664 -0.02781387 13.63842773 -0.01205444 C16.14729446 -0.01883314 18.6561562 -0.02773768 21.16500854 -0.03860474 C27.26100094 -0.05901192 33.3565903 -0.05606029 39.45258784 -0.04154153 C44.4089388 -0.03022795 49.36520355 -0.02872751 54.32156372 -0.03416061 C55.38157556 -0.03530986 55.38157556 -0.03530986 56.46300179 -0.03648233 C57.89880842 -0.03808103 59.33461504 -0.0397021 60.77042162 -0.04134528 C74.21918304 -0.05558701 87.66777376 -0.03923491 101.11650717 -0.01234345 C112.64440728 0.00999396 124.17205561 0.00611339 135.69995117 -0.01693726 C149.10211675 -0.04372323 162.50413291 -0.05421386 175.90632153 -0.03887594 C177.33670741 -0.03728327 178.76709332 -0.03571142 180.19747925 -0.03416061 C180.90117018 -0.03338924 181.60486111 -0.03261786 182.32987601 -0.03182311 C187.27758133 -0.02751447 192.2251915 -0.03477453 197.17288208 -0.04655838 C203.83791887 -0.06208418 210.50240809 -0.05095652 217.16742325 -0.0220871 C219.61150449 -0.01548345 222.05562578 -0.01736152 224.49969101 -0.02840042 C227.84001199 -0.04209485 231.17881811 -0.02489049 234.51904297 0 C235.96463514 -0.01673041 235.96463514 -0.01673041 237.43943119 -0.03379881 C245.15467482 0.07746651 250.61989098 2.45450961 256.42530727 7.52744102 C261.47577912 14.69070042 261.08594872 22.28307662 260.98828125 30.69204712 C260.99150456 32.30761913 260.99732781 33.92318771 261.00553894 35.53874207 C261.02001492 39.90458891 260.99720786 44.26950822 260.96667981 48.63524294 C260.94022578 53.21368545 260.94561279 57.7921021 260.94676208 62.37060547 C260.9439574 70.05554625 260.91797497 77.74013043 260.87695312 85.42495728 C260.82974834 94.30067867 260.81396028 103.17601018 260.81615978 112.05184805 C260.8181884 121.51761659 260.7973565 130.98323555 260.76981997 140.44895887 C260.76343668 143.1701677 260.76129792 145.89135228 260.76010323 148.6125679 C260.75708243 152.89237844 260.7387078 157.17186366 260.70860481 161.4515667 C260.69986772 163.01924458 260.69614602 164.58695991 260.69788742 166.15466118 C260.69936829 168.30000298 260.68231104 170.44444478 260.66065979 172.58966064 C260.65563226 173.78828547 260.65060472 174.98691029 260.64542484 176.22185707 C259.91042555 182.72244189 257.36673373 187.43565481 252.25952148 191.63491821 C246.17200087 195.62144899 240.86645627 196.2094155 233.70849609 196.14285278 C232.67008292 196.14909275 231.63166975 196.15533271 230.56178951 196.16176176 C227.09491462 196.17767002 223.6287449 196.16509543 220.16186523 196.15249634 C217.67122997 196.15791839 215.18059791 196.16504151 212.68997192 196.17373657 C206.63498959 196.19007122 200.58028227 196.18769614 194.52531075 196.17608601 C189.60278462 196.16703937 184.68031405 196.16583299 179.75778198 196.17018127 C179.05623393 196.17079421 178.35468588 196.17140714 177.63187879 196.17203864 C176.2065389 196.17331759 174.78119902 196.17461445 173.35585916 196.17592901 C160.00158084 196.18732549 146.64741249 196.17423579 133.29315221 196.15272754 C121.84341035 196.13485738 110.39383073 196.13796175 98.9440918 196.15640259 C85.6364465 196.17782583 72.3288975 196.18622694 59.02123737 196.17395353 C57.60124526 196.17267938 56.18125313 196.1714219 54.76126099 196.17018127 C54.06266258 196.16956417 53.36406417 196.16894707 52.64429611 196.16831127 C47.72970857 196.16486272 42.8151823 196.170676 37.90060425 196.18009949 C31.28164644 196.19251249 24.66294716 196.18362996 18.04400253 196.16052246 C15.61562483 196.15523594 13.18722133 196.15674811 10.75885391 196.16557312 C7.44240432 196.17651382 4.12693417 196.16278139 0.81054688 196.14285278 C-0.1489943 196.15177567 -1.10853548 196.16069856 -2.09715366 196.16989183 C-9.6390654 196.08206911 -14.73816693 194.10348552 -20.55297852 189.32241821 C-24.84563838 184.04857894 -26.11346715 179.30088495 -26.14161682 172.58966064 C-26.14841349 171.91624362 -26.15521016 171.2428266 -26.16221279 170.54900301 C-26.1810762 168.31136741 -26.17875517 166.07428425 -26.17626953 163.83657837 C-26.18525382 162.22454633 -26.19546361 160.61252073 -26.20680237 159.00050354 C-26.23323664 154.63471578 -26.24033299 150.26910456 -26.24224973 145.9032445 C-26.24438589 143.17254215 -26.25079759 140.44188434 -26.25874138 137.71119308 C-26.28647184 128.17597364 -26.29874963 118.64087978 -26.29638672 109.10562134 C-26.29458444 100.23098017 -26.32624533 91.35688611 -26.37361771 82.48238337 C-26.41289757 74.85071615 -26.42893622 67.2192274 -26.42702049 59.58745992 C-26.42625716 55.03473042 -26.43471971 50.48248755 -26.46655464 45.92985916 C-26.49569014 41.6466252 -26.49577466 37.3643401 -26.47400475 33.08107185 C-26.4708786 31.5142013 -26.47788862 29.9472707 -26.49608612 28.3805027 C-26.57996356 20.65513833 -26.50434314 14.04905573 -21.90626431 7.52744102 C-15.08046533 1.56287134 -8.92583468 -0.10330223 0 0 Z " fill="#506772" transform="translate(394.740478515625,644.3650817871094)"/>
<path d="M0 0 C0.89627222 -0.00445784 1.79254444 -0.00891569 2.71597642 -0.01350862 C4.19464376 -0.01323207 4.19464376 -0.01323207 5.70318317 -0.01294994 C7.27277073 -0.01846498 7.27277073 -0.01846498 8.87406713 -0.02409142 C12.39770255 -0.03514796 15.9213085 -0.03897545 19.44495869 -0.04278088 C21.96440952 -0.04904402 24.48385942 -0.05569069 27.0033083 -0.0626936 C34.5765017 -0.08193497 42.14968994 -0.09252391 49.72290155 -0.10142139 C53.28974795 -0.10580503 56.85659285 -0.11117166 60.42343807 -0.11641026 C72.28140645 -0.13342244 84.1393739 -0.14791634 95.9973526 -0.155159 C99.07445178 -0.15706887 102.15155095 -0.15898921 105.22865009 -0.16094494 C106.37583961 -0.16167055 106.37583961 -0.16167055 107.54620466 -0.16241082 C119.93375363 -0.1707101 132.32120599 -0.1960453 144.70871278 -0.22852562 C157.42826791 -0.2616045 170.14777396 -0.27960852 182.86737233 -0.28280324 C190.00832313 -0.28496761 197.14913307 -0.29370545 204.29004192 -0.31926441 C211.00823945 -0.3432549 217.72613977 -0.34679191 224.44438648 -0.33650303 C226.9098625 -0.33600674 229.37535086 -0.34235448 231.84078884 -0.35605907 C235.20782277 -0.37372772 238.57394183 -0.36669561 241.94097614 -0.35352612 C242.91560076 -0.36449536 243.89022539 -0.37546461 244.89438409 -0.38676625 C251.56895044 -0.32378039 257.18988725 0.85842574 262.16366547 5.58153456 C266.5803101 10.6580022 267.88800984 14.18053015 267.91369343 20.86340809 C267.91893011 21.53905095 267.92416679 22.21469382 267.92956215 22.91081071 C267.94455863 25.17381736 267.94526722 27.43659784 267.94593525 29.69965076 C267.95355709 31.32271169 267.96198463 32.94576901 267.97115803 34.56882191 C267.99311003 38.97807944 268.00190309 43.38726763 268.00698447 47.79657364 C268.01062781 50.55253579 268.01686781 53.30847978 268.02398586 56.06443501 C268.04848469 65.68275723 268.06153278 75.3010255 268.06507587 84.91937733 C268.06870948 93.87853407 268.09859111 102.83734787 268.14048046 111.79639983 C268.17520048 119.49251977 268.19062463 127.18852619 268.19132191 134.8847239 C268.19211427 139.47933216 268.20083357 144.07359127 268.22931957 148.66811848 C268.25552902 152.99224168 268.25768962 157.31572703 268.24166393 161.63989353 C268.2398516 163.22330716 268.24652077 164.80675769 268.26248264 166.3900919 C268.40978309 181.95575002 268.40978309 181.95575002 262.63953876 188.13422108 C258.4883759 191.98164032 254.86501909 194.37992612 249.14041233 194.39428329 C248.23866567 194.40134889 247.33691901 194.40841448 246.40784669 194.41569418 C245.42109035 194.41327909 244.43433402 194.41086401 243.41767597 194.40837574 C242.36634629 194.41361242 241.31501661 194.4188491 240.23182845 194.42424446 C236.69744636 194.43928542 233.16320852 194.43995052 229.62879658 194.44061756 C227.09934462 194.44823632 224.56989498 194.45666333 222.04044819 194.46584034 C215.16019541 194.48782107 208.2799928 194.4966108 201.3997097 194.50166678 C197.10266187 194.50492424 192.80562298 194.51144704 188.50858021 194.51866817 C176.60853711 194.53823432 164.70850233 194.55463828 152.80844212 194.55754471 C151.66620603 194.55782606 151.66620603 194.55782606 150.50089447 194.5581131 C148.95719862 194.55847935 147.41350277 194.55884305 145.86980692 194.55920421 C145.10352546 194.55938702 144.337244 194.55956984 143.54774189 194.55975819 C142.78052377 194.55993874 142.01330565 194.56011928 141.22283849 194.5603053 C128.79328913 194.56384636 116.36391309 194.59086434 103.93442383 194.62825608 C91.1696292 194.66634881 78.40492055 194.68570226 65.64006782 194.68600422 C58.47451398 194.6865886 51.30916686 194.69506761 44.14366627 194.72400188 C37.40323698 194.75109472 30.66328594 194.75241245 23.92279911 194.73634624 C21.44925896 194.73452816 18.9756955 194.74125469 16.50220585 194.75716496 C13.12409624 194.77756861 9.74742709 194.76710538 6.36933613 194.74895191 C5.39150268 194.76215188 4.41366923 194.77535185 3.40620446 194.78895181 C-3.08262727 194.70936074 -7.31821395 193.27016277 -12.36046124 189.13422108 C-17.28199697 183.95365715 -18.60727529 179.38800413 -18.6346159 172.32274342 C-18.63985258 171.65032968 -18.64508926 170.97791594 -18.65048462 170.28512603 C-18.66544868 168.03904426 -18.66618897 165.79319101 -18.66685772 163.54706287 C-18.67448164 161.93370652 -18.68290954 160.3203538 -18.6920805 158.7070055 C-18.71400958 154.32879785 -18.72282227 149.95066003 -18.72790694 145.57240367 C-18.73155242 142.83536468 -18.73779348 140.09834394 -18.74490833 137.36131191 C-18.76939739 127.8078236 -18.78245353 118.25438955 -18.78599834 108.70087147 C-18.7896331 99.80360899 -18.81952552 90.90669157 -18.86140293 82.00953454 C-18.89612265 74.36434935 -18.91154708 66.71927844 -18.91224438 59.07401496 C-18.91303663 54.51071973 -18.92175111 49.94777608 -18.95024204 45.38456249 C-18.97645163 41.09079334 -18.97861204 36.79766656 -18.9625864 32.5038538 C-18.96077419 30.93172712 -18.96744215 29.35956327 -18.98340511 27.78751659 C-19.13091007 12.31248768 -19.13091007 12.31248768 -13.36046124 6.13422108 C-9.26002211 2.06029065 -5.84225375 0.01347896 0 0 Z " fill="#506772" transform="translate(387.3604612350464,409.86577892303467)"/>
<path d="M0 0 C0.89826327 -0.00644889 1.79652653 -0.01289778 2.7220099 -0.0195421 C3.70487529 -0.01644489 4.68774067 -0.01334769 5.70038986 -0.01015663 C6.74763599 -0.01468774 7.79488212 -0.01921886 8.87386298 -0.02388728 C12.39443185 -0.03658034 15.91484699 -0.03490772 19.43543625 -0.03325844 C21.95503565 -0.03924067 24.47463322 -0.0460455 26.99422836 -0.05361366 C33.13523538 -0.06947334 39.2761858 -0.07572348 45.41721138 -0.07683842 C50.40990231 -0.07778879 55.40258057 -0.08189853 60.39526749 -0.08823967 C74.55286082 -0.10585479 88.71042382 -0.1150783 102.86802819 -0.11357872 C103.63132266 -0.11349881 104.39461712 -0.1134189 105.18104172 -0.11333656 C106.32738298 -0.11321392 106.32738298 -0.11321392 107.49688265 -0.1130888 C119.87790757 -0.11227618 132.25881075 -0.13140714 144.63980046 -0.1596133 C157.35487393 -0.18835172 170.06988807 -0.20215302 182.78499484 -0.20042574 C189.92256862 -0.19976209 197.06001484 -0.20524309 204.19755936 -0.22678185 C210.91167866 -0.24691298 217.62548402 -0.24631014 224.33963203 -0.23174858 C226.80349177 -0.22965538 229.26736824 -0.23439165 231.73119926 -0.2464695 C235.0960028 -0.26189503 238.45987412 -0.25263046 241.82465744 -0.23720741 C243.28557119 -0.2526381 243.28557119 -0.2526381 244.77599835 -0.26838052 C251.44710341 -0.20085715 257.06939487 0.98401613 262.04064393 5.70455611 C265.65128813 9.85476219 267.76981906 13.32617714 267.75699997 18.83838463 C267.76112396 20.20972557 267.76112396 20.20972557 267.76533127 21.60877037 C267.75814072 22.60426903 267.75095016 23.59976768 267.74354172 24.62543297 C267.74383377 25.67940269 267.74412582 26.73337242 267.74442673 27.81928062 C267.74303311 31.30390205 267.72747015 34.78830981 267.71180344 38.27289391 C267.70807343 40.68856248 267.7052264 43.10423256 267.703228 45.51990318 C267.69559061 51.87885271 267.67594112 58.23771093 267.65382004 64.59662437 C267.63336394 71.08505582 267.62422678 77.57350201 267.61414719 84.06195641 C267.59269542 96.7937662 267.55894239 109.5255127 267.51649094 122.25726891 C268.50649094 122.58726891 269.49649094 122.91726891 270.51649094 123.25726891 C223.75224138 136.70956514 176.33214236 143.70911318 127.63476562 143.57532692 C125.54633889 143.56968063 123.45792029 143.56686385 121.36948776 143.56424522 C100.93997002 143.52701733 80.7840302 143.0649891 60.51649094 140.25726891 C58.61238449 140.00783531 58.61238449 140.00783531 56.66981125 139.75336266 C40.75111062 137.63244029 25.06620968 134.67282384 9.39149094 131.19476891 C8.64394547 131.02909416 7.89639999 130.86341942 7.12620163 130.69272423 C-2.51449725 128.53957659 -12.01654695 126.0812579 -21.48350906 123.25726891 C-19.99850906 122.76226891 -19.99850906 122.76226891 -18.48350906 122.25726891 C-18.48811803 121.70804016 -18.49272699 121.15881142 -18.49747562 120.59293938 C-18.60808803 107.20452332 -18.69041036 93.81618775 -18.74256992 80.42741203 C-18.76864366 73.95255548 -18.80400242 67.47802916 -18.86070633 61.00336266 C-18.91510341 54.75285669 -18.94494633 48.50266803 -18.95789528 42.25194359 C-18.96712118 39.8693346 -18.98513732 37.48674264 -19.01215935 35.10426903 C-19.0485503 31.76231157 -19.05344998 28.42165882 -19.05113602 25.07953453 C-19.0691124 24.09841698 -19.08708878 23.11729942 -19.10560989 22.10645103 C-19.05685009 15.581854 -17.66595128 11.31605516 -13.48350906 6.25726891 C-9.3395725 2.41654721 -5.71618141 0.0103933 0 0 Z " fill="#516872" transform="translate(387.4835090637207,880.7427310943604)"/>
<path d="M0 0 C0.83959763 -0.0066568 1.67919525 -0.0133136 2.54423523 -0.02017212 C4.31682148 -0.03027279 6.08944555 -0.03498994 7.86206055 -0.03466797 C10.55517255 -0.03903164 13.24663173 -0.07535072 15.93945312 -0.11328125 C17.66796319 -0.11915212 19.39648098 -0.1231197 21.125 -0.125 C21.92110184 -0.13937103 22.71720367 -0.15374207 23.53742981 -0.16854858 C30.10001996 -0.11569806 35.32272939 1.74871906 40.28515625 6.1171875 C40.73117187 6.684375 41.1771875 7.2515625 41.63671875 7.8359375 C42.32894531 8.68671875 42.32894531 8.68671875 43.03515625 9.5546875 C47.14629261 15.52500018 46.59905402 21.48992393 46.57739258 28.49780273 C46.57424416 30.63122202 46.59766575 32.76323751 46.62304688 34.89648438 C46.62532144 36.26822744 46.62602263 37.63997419 46.625 39.01171875 C46.62798096 40.24833252 46.63096191 41.48494629 46.6340332 42.7590332 C45.94785008 49.35134068 43.44330572 54.07552155 38.26171875 58.3359375 C32.54973213 61.97311329 27.7096284 62.93426003 21.01171875 62.8671875 C20.15416992 62.8710144 19.29662109 62.87484131 18.41308594 62.87878418 C16.61131609 62.88148979 14.80950604 62.8742239 13.0078125 62.85742188 C10.26863035 62.83599157 7.53207048 62.85726851 4.79296875 62.8828125 C3.03254636 62.88016898 1.27212559 62.87504351 -0.48828125 62.8671875 C-1.2968457 62.87528442 -2.10541016 62.88338135 -2.93847656 62.89172363 C-9.54863386 62.78409883 -15.02463083 61.01869247 -19.796875 56.30078125 C-20.47943359 55.29724609 -20.47943359 55.29724609 -21.17578125 54.2734375 C-21.88541016 53.26603516 -21.88541016 53.26603516 -22.609375 52.23828125 C-24.9602854 48.27671251 -24.92861782 44.49754137 -24.9765625 40.03515625 C-24.98463425 39.32116165 -24.99270599 38.60716705 -25.00102234 37.87153625 C-25.01484005 36.361078 -25.02557254 34.85058882 -25.03344727 33.34008789 C-25.04496377 31.80093185 -25.06541073 30.26181564 -25.0949707 28.72290039 C-25.13778634 26.49337763 -25.15383447 24.26503982 -25.1640625 22.03515625 C-25.18157059 21.35370041 -25.19907867 20.67224457 -25.21711731 19.97013855 C-25.19070382 14.09666023 -22.95787424 10.65980667 -18.9921875 6.5078125 C-18.43402344 6.03859375 -17.87585938 5.569375 -17.30078125 5.0859375 C-16.74519531 4.60640625 -16.18960938 4.126875 -15.6171875 3.6328125 C-10.58896485 0.16218896 -5.90516075 0.01638397 0 0 Z " fill="#FDBC0A" transform="translate(731.73828125,828.6640625)"/>
<path d="M0 0 C1.22254486 -0.0099852 1.22254486 -0.0099852 2.4697876 -0.02017212 C4.19109857 -0.03027231 5.91244849 -0.03498996 7.63378906 -0.03466797 C10.24351014 -0.03902557 12.85151698 -0.07532783 15.4609375 -0.11328125 C33.26970872 -0.23698295 33.26970872 -0.23698295 40.890625 6.40625 C41.426875 7.08429687 41.963125 7.76234375 42.515625 8.4609375 C43.0725 9.14414062 43.629375 9.82734375 44.203125 10.53125 C46.80519503 14.1090963 46.707805 17.1848846 46.75390625 21.46875 C46.761978 22.1794162 46.77004974 22.8900824 46.77836609 23.62228394 C46.79220806 25.13032595 46.80292972 26.63839932 46.81079102 28.14648438 C46.82790538 30.43161384 46.87177409 32.71525833 46.91601562 35 C46.99748139 42.6333163 46.98928194 48.83104294 42.515625 55.3359375 C36.40780105 61.44376145 29.70849705 62.80563053 21.43359375 62.83984375 C20.57937332 62.84982895 19.72515289 62.85981415 18.845047 62.87010193 C17.04575407 62.88521945 15.24637785 62.8923297 13.44702148 62.8918457 C10.72040476 62.89839599 7.99745637 62.95290788 5.27148438 63.00976562 C-4.1828683 63.101212 -12.13245748 63.134228 -19.484375 56.3359375 C-25.55570907 49.6500332 -24.73188068 41.67025736 -24.77954102 33.17407227 C-24.79105453 31.74558604 -24.81149691 30.31714262 -24.84106445 28.88891602 C-25.02967889 19.76693199 -25.09331562 13.41917626 -18.73828125 6.41015625 C-18.18011719 5.95253906 -17.62195313 5.49492188 -17.046875 5.0234375 C-16.49128906 4.55292969 -15.93570313 4.08242188 -15.36328125 3.59765625 C-10.45847029 0.30398901 -5.77418484 0.01653615 0 0 Z " fill="#FDBC0A" transform="translate(270.484375,828.6640625)"/>
<path d="M0 0 C0.83959763 -0.0066568 1.67919525 -0.0133136 2.54423523 -0.02017212 C4.31682148 -0.03027279 6.08944555 -0.03498994 7.86206055 -0.03466797 C10.55517255 -0.03903164 13.24663173 -0.07535072 15.93945312 -0.11328125 C17.66796319 -0.11915212 19.39648098 -0.1231197 21.125 -0.125 C21.92110184 -0.13937103 22.71720367 -0.15374207 23.53742981 -0.16854858 C30.10001996 -0.11569806 35.32272939 1.74871906 40.28515625 6.1171875 C40.73117187 6.684375 41.1771875 7.2515625 41.63671875 7.8359375 C42.32894531 8.68671875 42.32894531 8.68671875 43.03515625 9.5546875 C47.14629261 15.52500018 46.59905402 21.48992393 46.57739258 28.49780273 C46.57424416 30.63122202 46.59766575 32.76323751 46.62304688 34.89648438 C46.62532144 36.26822744 46.62602263 37.63997419 46.625 39.01171875 C46.62798096 40.24833252 46.63096191 41.48494629 46.6340332 42.7590332 C45.94785008 49.35134068 43.44330572 54.07552155 38.26171875 58.3359375 C32.54973213 61.97311329 27.7096284 62.93426003 21.01171875 62.8671875 C20.15416992 62.8710144 19.29662109 62.87484131 18.41308594 62.87878418 C16.61131609 62.88148979 14.80950604 62.8742239 13.0078125 62.85742188 C10.26863035 62.83599157 7.53207048 62.85726851 4.79296875 62.8828125 C3.03254636 62.88016898 1.27212559 62.87504351 -0.48828125 62.8671875 C-1.2968457 62.87528442 -2.10541016 62.88338135 -2.93847656 62.89172363 C-9.54863386 62.78409883 -15.02463083 61.01869247 -19.796875 56.30078125 C-20.47943359 55.29724609 -20.47943359 55.29724609 -21.17578125 54.2734375 C-21.88541016 53.26603516 -21.88541016 53.26603516 -22.609375 52.23828125 C-24.9602854 48.27671251 -24.92861782 44.49754137 -24.9765625 40.03515625 C-24.98463425 39.32116165 -24.99270599 38.60716705 -25.00102234 37.87153625 C-25.01484005 36.361078 -25.02557254 34.85058882 -25.03344727 33.34008789 C-25.04496377 31.80093185 -25.06541073 30.26181564 -25.0949707 28.72290039 C-25.13778634 26.49337763 -25.15383447 24.26503982 -25.1640625 22.03515625 C-25.18157059 21.35370041 -25.19907867 20.67224457 -25.21711731 19.97013855 C-25.19070382 14.09666023 -22.95787424 10.65980667 -18.9921875 6.5078125 C-18.43402344 6.03859375 -17.87585938 5.569375 -17.30078125 5.0859375 C-16.74519531 4.60640625 -16.18960938 4.126875 -15.6171875 3.6328125 C-10.58896485 0.16218896 -5.90516075 0.01638397 0 0 Z " fill="#FDBC0A" transform="translate(731.73828125,316.6640625)"/>
<path d="M0 0 C2.73045723 0.03438986 5.45768401 0.02060718 8.18823242 0.0012207 C9.9441054 0.00811873 11.69997014 0.01779073 13.45581055 0.03051758 C14.26123795 0.02555771 15.06666534 0.02059784 15.89649963 0.01548767 C22.63874729 0.15394167 27.8920104 2.11377894 32.94799805 6.63208008 C33.49584961 7.30110352 34.04370117 7.97012695 34.6081543 8.65942383 C35.17405273 9.33102539 35.73995117 10.00262695 36.32299805 10.69458008 C39.97122138 15.84439099 38.93198542 22.57887669 38.96582031 28.62841797 C38.97730514 30.05690443 38.99770165 31.48534916 39.02734375 32.91357422 C39.21911003 42.1601372 39.23453493 49.3081315 32.92456055 56.62036133 C32.36639648 57.06637695 31.80823242 57.51239258 31.2331543 57.97192383 C30.67756836 58.4334082 30.12198242 58.89489258 29.54956055 59.37036133 C24.44429438 62.70311305 19.84947317 62.91644423 13.93237305 62.93286133 C13.09277542 62.93951813 12.2531778 62.94617493 11.38813782 62.95303345 C9.61555157 62.96313412 7.8429275 62.96785127 6.0703125 62.9675293 C3.37720049 62.97189297 0.68574131 63.00821205 -2.00708008 63.04614258 C-3.73559015 63.05201345 -5.46410794 63.05598103 -7.19262695 63.05786133 C-8.38677971 63.07941788 -8.38677971 63.07941788 -9.60505676 63.10140991 C-16.69766344 63.04429101 -21.7465354 60.77796364 -27.1418457 56.22192383 C-33.00809866 49.18242028 -32.88811107 42.27391192 -32.88525391 33.53955078 C-32.89180088 31.29975942 -32.94629378 29.06444492 -33.00317383 26.82543945 C-33.09321227 19.57638518 -33.03864064 13.17010351 -28.16479492 7.34399414 C-27.55909668 6.76746094 -26.95339844 6.19092773 -26.3293457 5.59692383 C-25.77005371 5.06035156 -25.21076172 4.5237793 -24.63452148 3.97094727 C-17.61914628 -1.13276043 -8.26565279 -0.11541088 0 0 Z " fill="#FDBC0A" transform="translate(739.329345703125,521.403076171875)"/>
<path d="M0 0 C0.81740158 -0.00428513 1.63480316 -0.00857025 2.47697449 -0.01298523 C4.20249508 -0.01871362 5.92803982 -0.0192398 7.65356445 -0.01489258 C10.27402689 -0.01174153 12.89334955 -0.03517859 15.51367188 -0.06054688 C17.19661317 -0.06282113 18.87955748 -0.06352278 20.5625 -0.0625 C21.33672806 -0.07170975 22.11095612 -0.08091949 22.90864563 -0.09040833 C30.37199393 -0.0279288 37.06042726 1.88073976 42.48046875 7.30078125 C45.87587869 12.39900973 46.98991647 15.66423028 47.01171875 21.921875 C47.01745911 22.97726219 47.01745911 22.97726219 47.02331543 24.05397034 C47.02601977 25.53217003 47.01876265 27.0104188 47.00195312 28.48852539 C46.9805499 30.72978348 47.00178387 32.96782547 47.02734375 35.20898438 C47.04462667 43.61984989 46.93246313 50.69939109 40.734375 57.10546875 C40.17621094 57.45867188 39.61804688 57.811875 39.04296875 58.17578125 C38.48738281 58.54445313 37.93179688 58.913125 37.359375 59.29296875 C32.02202452 62.15583034 27.70202207 62.62018309 21.7421875 62.63671875 C20.90258987 62.64337555 20.06299225 62.65003235 19.19795227 62.65689087 C17.42536602 62.66699154 15.65274195 62.67170869 13.88012695 62.67138672 C11.18701495 62.67575039 8.49555577 62.71206947 5.80273438 62.75 C4.07422431 62.75587087 2.34570652 62.75983845 0.6171875 62.76171875 C-0.57696526 62.7832753 -0.57696526 62.7832753 -1.79524231 62.80526733 C-8.36018622 62.75239786 -13.54243709 60.8698181 -18.54296875 56.5546875 C-18.98898438 55.99652344 -19.435 55.43835938 -19.89453125 54.86328125 C-20.35601562 54.30769531 -20.8175 53.75210938 -21.29296875 53.1796875 C-25.40036526 46.88778393 -24.85760746 40.2345572 -24.83520508 33.00854492 C-24.83204565 30.8730155 -24.8555292 28.73887406 -24.88085938 26.60351562 C-24.88313288 25.23307465 -24.88383563 23.86262998 -24.8828125 22.4921875 C-24.88579346 21.25670166 -24.88877441 20.02121582 -24.8918457 18.74829102 C-24.27607046 13.04641415 -21.96809949 9.2182438 -17.64453125 5.55078125 C-16.98710937 4.9784375 -16.3296875 4.40609375 -15.65234375 3.81640625 C-10.66917727 0.27525498 -5.96988026 -0.00697294 0 0 Z " fill="#FDBC0A" transform="translate(270.51953125,521.69921875)"/>
<path d="M0 0 C0.87974487 -0.0038269 1.75948975 -0.00765381 2.66589355 -0.01159668 C4.51474155 -0.01430291 6.36362868 -0.0070326 8.21240234 0.00976562 C11.02398971 0.03119466 13.83302228 0.00992077 16.64453125 -0.015625 C18.45052641 -0.01298149 20.25651999 -0.00785604 22.0625 0 C22.89293823 -0.00809692 23.72337646 -0.01619385 24.57897949 -0.02453613 C30.89849004 0.07576339 36.3659416 1.53526349 41.06018066 5.97839355 C45.61732986 11.23562534 46.85402969 15.22386788 46.9375 22.078125 C46.94890015 22.80815735 46.96030029 23.5381897 46.9720459 24.29034424 C46.99090126 25.83347825 47.00399617 27.37669199 47.01171875 28.91992188 C47.031079 31.26057657 47.09311808 33.59767337 47.15625 35.9375 C47.34769996 49.51336507 47.34769996 49.51336507 42.08862305 55.1496582 C41.31772339 55.83354614 41.31772339 55.83354614 40.53125 56.53125 C39.644375 57.335625 38.7575 58.14 37.84375 58.96875 C34.64792589 61.12809062 32.12191472 61.65786949 28.35449219 61.70825195 C27.51642029 61.72108719 26.67834839 61.73392242 25.81488037 61.74714661 C24.9117511 61.75453354 24.00862183 61.76192047 23.078125 61.76953125 C22.14454163 61.777603 21.21095825 61.78567474 20.24908447 61.79399109 C18.27203218 61.80782233 16.29495611 61.81854878 14.31787109 61.82641602 C11.30650073 61.84360586 8.29623499 61.88749787 5.28515625 61.93164062 C3.36198722 61.94177006 1.43880888 61.95028538 -0.484375 61.95703125 C-1.37940735 61.97453934 -2.2744397 61.99204742 -3.19659424 62.01008606 C-9.86494824 61.98715298 -14.14809651 60.57074976 -19.17578125 55.96875 C-24.73520027 48.73954082 -24.81189677 43.25739025 -24.78442383 34.36938477 C-24.78127541 32.23596548 -24.804697 30.10394999 -24.83007812 27.97070312 C-24.83235269 26.59896006 -24.83305388 25.22721331 -24.83203125 23.85546875 C-24.83501221 22.61885498 -24.83799316 21.38224121 -24.84106445 20.1081543 C-24.20855984 14.03154764 -21.82746724 8.88996724 -17.46875 4.53125 C-11.76120892 0.77188068 -6.72932633 -0.06561216 0 0 Z " fill="#FEBD0A" transform="translate(270.46875,726.46875)"/>
<path d="M0 0 C2.94816753 0.03975112 5.89184356 0.02065085 8.84008789 -0.00512695 C10.73268328 0.00243185 12.6252688 0.01338502 14.51782227 0.02807617 C15.388871 0.02109207 16.25991974 0.01410797 17.15736389 0.00691223 C23.39644087 0.14943526 27.52554436 1.8024185 32.38891602 5.72729492 C38.90868561 12.76178317 38.76156353 19.06817517 38.75952148 28.26147461 C38.763875 30.45661163 38.80015769 32.64970345 38.83813477 34.84448242 C38.90406108 42.9641276 38.88356608 49.94595067 32.9765625 56.22973633 C27.04718546 61.56589092 21.60093381 62.05138263 13.99438477 62.09838867 C13.08819901 62.10741714 12.18201324 62.11644562 11.24836731 62.12574768 C9.33455699 62.14022559 7.42069744 62.14913079 5.50683594 62.15283203 C2.59622688 62.16471405 -0.3122509 62.2139106 -3.22241211 62.2644043 C-5.08763621 62.27387132 -6.95287325 62.28110502 -8.81811523 62.28588867 C-10.1107 62.31518715 -10.1107 62.31518715 -11.42939758 62.34507751 C-17.6768889 62.29900395 -21.74895237 60.6592678 -26.61108398 56.72729492 C-33.21535926 49.60162949 -33.01358228 43.07955867 -33.03662109 33.76586914 C-33.0484758 31.49799196 -33.09763903 29.23287613 -33.14819336 26.96557617 C-33.31058165 13.31138036 -33.31058165 13.31138036 -29.22241211 8.31542969 C-28.69067383 7.79134521 -28.15893555 7.26726074 -27.61108398 6.72729492 C-27.09094727 6.14069092 -26.57081055 5.55408691 -26.03491211 4.94970703 C-18.94034779 -1.35891602 -8.90090879 -0.13444584 0 0 Z " fill="#FEBD0A" transform="translate(278.611083984375,419.272705078125)"/>
<path d="M0 0 C0.79795486 -0.00953201 1.59590973 -0.01906403 2.41804504 -0.02888489 C3.27226547 -0.02797348 4.1264859 -0.02706207 5.0065918 -0.02612305 C5.89436813 -0.03040817 6.78214447 -0.0346933 7.69682312 -0.03910828 C9.57375233 -0.04484554 11.45070376 -0.04535628 13.32763672 -0.04101562 C16.18520551 -0.03786452 19.04172972 -0.06129126 21.89916992 -0.08666992 C23.72664258 -0.08894401 25.55411801 -0.0896459 27.3815918 -0.08862305 C28.22973953 -0.09783279 29.07788727 -0.10704254 29.95173645 -0.11653137 C37.50239573 -0.05828167 43.34230653 1.87368132 48.89331055 7.2746582 C52.28458712 12.36255444 53.40727307 15.65184107 53.4597168 21.89575195 C53.46591537 22.59934341 53.47211395 23.30293488 53.47850037 24.02784729 C53.48555815 25.50601835 53.48249556 26.98426958 53.46972656 28.46240234 C53.45586059 30.70406735 53.4899795 32.94154782 53.52807617 35.18286133 C53.56904701 42.85204715 53.4507234 49.40064495 47.89331055 55.2746582 C43.85270428 59.01961036 40.20171596 61.49978249 34.61889648 61.58105469 C33.78412781 61.59704208 32.94935913 61.61302948 32.08929443 61.62950134 C31.1944635 61.63486404 30.29963257 61.64022675 29.37768555 61.64575195 C28.44788879 61.65478043 27.51809204 61.6638089 26.56011963 61.67311096 C24.59325373 61.68760745 22.62633967 61.69649871 20.65942383 61.70019531 C17.66753567 61.71206212 14.67773055 61.76122798 11.6862793 61.81176758 C9.77092473 61.82123594 7.85555755 61.828469 5.94018555 61.83325195 C4.61008453 61.86255043 4.61008453 61.86255043 3.25311279 61.8924408 C-3.07722072 61.84703712 -7.17831738 60.26357378 -12.10668945 56.2746582 C-18.77967114 49.25046695 -18.50864556 41.84419885 -18.53222656 32.66503906 C-18.54410111 30.47842581 -18.59330492 28.29465937 -18.64379883 26.10864258 C-18.73199811 18.48918383 -18.60878889 12.12556769 -13.10668945 6.2746582 C-9.14562994 2.60343231 -5.4918568 0.03623198 0 0 Z " fill="#FEBD0A" transform="translate(725.106689453125,419.725341796875)"/>
<path d="M0 0 C1.85136546 -0.01649107 3.70266908 -0.04368976 5.55371094 -0.08203125 C25.98902357 -0.50262381 25.98902357 -0.50262381 33.2331543 5.35009766 C40.05107293 12.49895392 39.50422483 20.15532506 39.58325195 29.45703125 C39.59977224 30.87874771 39.62701122 32.30038244 39.6652832 33.72167969 C40.07498814 49.05176961 40.07498814 49.05176961 34.2331543 55.35009766 C28.18918102 61.09187227 22.6116771 61.67999529 14.61987305 61.75634766 C13.22730034 61.77344788 13.22730034 61.77344788 11.80659485 61.79089355 C9.84571865 61.80974685 7.88477975 61.82284296 5.92382812 61.83056641 C2.94051316 61.8499685 -0.04003698 61.91204018 -3.02270508 61.97509766 C-4.93349611 61.98816091 -6.84430673 61.99866061 -8.75512695 62.00634766 C-9.63872391 62.03104126 -10.52232086 62.05573486 -11.43269348 62.08117676 C-18.13849651 62.03349617 -21.94099608 59.94563911 -26.7668457 55.35009766 C-32.7138807 48.64062227 -32.05180384 42.64558226 -32.11694336 34.11230469 C-32.13343443 32.53142505 -32.16063362 30.95061785 -32.19897461 29.37011719 C-32.5805418 13.54669161 -32.5805418 13.54669161 -28.20141602 7.77612305 C-19.81487132 -0.56046776 -11.07064865 0.07213419 0 0 Z " fill="#FEBD0A" transform="translate(738.766845703125,726.64990234375)"/>
<path d="M0 0 C0.81482346 -0.01283524 1.62964691 -0.02567047 2.46916199 -0.03889465 C3.34728043 -0.04628159 4.22539886 -0.05366852 5.13012695 -0.0612793 C6.49365044 -0.07338692 6.49365044 -0.07338692 7.88471985 -0.08573914 C9.81049702 -0.09957079 11.7362986 -0.11029706 13.66210938 -0.11816406 C16.59008071 -0.13533195 19.5169094 -0.17922069 22.44458008 -0.22338867 C24.31892076 -0.23352013 26.19327102 -0.24203482 28.06762695 -0.2487793 C28.93562424 -0.26628738 29.80362152 -0.28379547 30.69792175 -0.30183411 C37.16453589 -0.27905675 42.65034675 1.06790972 47.45829773 5.6245575 C53.4589957 12.53734906 53.27366224 18.57791706 53.24658203 27.33886719 C53.24343361 29.47228647 53.2668552 31.60430196 53.29223633 33.73754883 C53.29451089 35.10929189 53.29521209 36.48103864 53.29418945 37.8527832 C53.29717041 39.08939697 53.30015137 40.32601074 53.30322266 41.60009766 C52.67071804 47.67670432 50.28962544 52.81828471 45.9309082 57.17700195 C40.16875688 60.98583517 35.04017566 61.78296071 28.2434082 61.7434082 C27.34146729 61.74960678 26.43952637 61.75580536 25.51025391 61.76219177 C23.6143501 61.76925609 21.71838381 61.76617555 19.82250977 61.75341797 C16.93820105 61.73953705 14.05713201 61.77369044 11.1730957 61.81176758 C9.32153242 61.81271883 7.46996511 61.81085961 5.6184082 61.8059082 C4.76609619 61.81916641 3.91378418 61.83242462 3.03564453 61.84608459 C-3.16954975 61.75059587 -7.22752639 60.05820293 -12.0690918 56.17700195 C-18.68355733 49.21440666 -18.41303031 42.03045709 -18.38476562 32.93969727 C-18.38161132 30.81514898 -18.40507114 28.69200287 -18.43041992 26.56762695 C-18.43269399 25.20044119 -18.43339591 23.83325173 -18.43237305 22.46606445 C-18.435354 21.23581543 -18.43833496 20.00556641 -18.44140625 18.73803711 C-17.81581962 12.75455737 -15.80299658 8.19312823 -11.0690918 4.30200195 C-10.3884668 3.72708008 -9.7078418 3.1521582 -9.0065918 2.55981445 C-6.05432553 0.45275345 -3.52556858 0.0485178 0 0 Z " fill="#FEBD0A" transform="translate(725.069091796875,624.822998046875)"/>
<path d="M0 0 C1.85136546 -0.01649107 3.70266908 -0.04368976 5.55371094 -0.08203125 C25.98902357 -0.50262381 25.98902357 -0.50262381 33.2331543 5.35009766 C40.05107293 12.49895392 39.50422483 20.15532506 39.58325195 29.45703125 C39.59977224 30.87874771 39.62701122 32.30038244 39.6652832 33.72167969 C40.07498814 49.05176961 40.07498814 49.05176961 34.2331543 55.35009766 C28.18918102 61.09187227 22.6116771 61.67999529 14.61987305 61.75634766 C13.22730034 61.77344788 13.22730034 61.77344788 11.80659485 61.79089355 C9.84571865 61.80974685 7.88477975 61.82284296 5.92382812 61.83056641 C2.94051316 61.8499685 -0.04003698 61.91204018 -3.02270508 61.97509766 C-4.93349611 61.98816091 -6.84430673 61.99866061 -8.75512695 62.00634766 C-9.63872391 62.03104126 -10.52232086 62.05573486 -11.43269348 62.08117676 C-18.13849651 62.03349617 -21.94099608 59.94563911 -26.7668457 55.35009766 C-32.7138807 48.64062227 -32.05180384 42.64558226 -32.11694336 34.11230469 C-32.13343443 32.53142505 -32.16063362 30.95061785 -32.19897461 29.37011719 C-32.5805418 13.54669161 -32.5805418 13.54669161 -28.20141602 7.77612305 C-19.81487132 -0.56046776 -11.07064865 0.07213419 0 0 Z " fill="#FEBD0A" transform="translate(738.766845703125,214.64990234375)"/>
<path d="M0 0 C0.81474792 -0.0127597 1.62949585 -0.02551941 2.46893311 -0.03866577 C3.77836884 -0.04200424 3.77836884 -0.04200424 5.11425781 -0.04541016 C6.02185852 -0.05206696 6.92945923 -0.05872375 7.86456299 -0.06558228 C9.78436256 -0.07569906 11.70419723 -0.0803996 13.62402344 -0.08007812 C16.54324302 -0.08443661 19.46093208 -0.12072532 22.37988281 -0.15869141 C24.24966934 -0.16456292 26.11946301 -0.16853007 27.98925781 -0.17041016 C29.28654816 -0.19196671 29.28654816 -0.19196671 30.61004639 -0.21395874 C37.43089708 -0.16323035 42.67574868 1.57214942 47.87597656 6.07177734 C48.33101563 6.63896484 48.78605469 7.20615234 49.25488281 7.79052734 C49.72796875 8.35771484 50.20105469 8.92490234 50.68847656 9.50927734 C54.14279902 14.95969618 53.07755871 22.17778932 53.11254883 28.39746094 C53.12404771 29.81911183 53.14446681 31.24072026 53.17407227 32.66210938 C53.48360891 47.54407807 53.48360891 47.54407807 48.81738281 54.29052734 C46.78222656 56.34912109 46.78222656 56.34912109 44.75488281 57.72802734 C44.08328125 58.20111328 43.41167969 58.67419922 42.71972656 59.16162109 C38.29980094 61.78453384 33.81169972 61.48589048 28.83691406 61.52880859 C27.50668465 61.54091621 27.50668465 61.54091621 26.14958191 61.55326843 C24.27088367 61.56709915 22.39216041 61.57782584 20.51342773 61.58569336 C17.65787233 61.60285909 14.80348925 61.64674813 11.94824219 61.69091797 C10.11947463 61.70104967 8.29069725 61.70956428 6.46191406 61.71630859 C5.61579056 61.73381668 4.76966705 61.75132477 3.89790344 61.7693634 C-2.86501365 61.744954 -8.31536667 60.07616732 -13.24121094 55.29052734 C-13.69625 54.63052734 -14.15128906 53.97052734 -14.62011719 53.29052734 C-15.09320313 52.63052734 -15.56628906 51.97052734 -16.05371094 51.29052734 C-19.3007173 45.53804548 -18.47822177 38.59757586 -18.53271484 32.18359375 C-18.54923513 30.76187729 -18.57647411 29.34024256 -18.61474609 27.91894531 C-19.0252015 12.56077468 -19.0252015 12.56077468 -13.18261719 6.29052734 C-9.18530403 2.58570051 -5.53292238 0.05915015 0 0 Z " fill="#FEBD0A" transform="translate(264.1826171875,624.70947265625)"/>
<path d="M0 0 C0.92555191 -0.00619858 1.85110382 -0.01239716 2.80470276 -0.01878357 C4.75366164 -0.0258577 6.70268125 -0.02274998 8.65161133 -0.01000977 C11.61719082 0.00385149 14.57960849 -0.03024481 17.54492188 -0.06835938 C19.44661535 -0.06931078 21.34831273 -0.06745061 23.25 -0.0625 C24.12732285 -0.07575821 25.00464569 -0.08901642 25.90855408 -0.10267639 C32.18478216 -0.00877499 36.3050535 1.60961288 41.19140625 5.56640625 C47.73684657 12.62859186 47.53466207 18.93189484 47.50708008 28.15551758 C47.50393131 30.3613478 47.5273536 32.56582089 47.55273438 34.77148438 C47.55500888 36.18880041 47.55571016 37.60612001 47.5546875 39.0234375 C47.55766846 40.3019458 47.56064941 41.5804541 47.5637207 42.89770508 C47.13766174 47.09599232 46.0284496 49.80033077 44.19140625 53.56640625 C20.5596803 44.74009897 -2.28717931 32.65675112 -23.80859375 19.56640625 C-23.35012871 15.14701646 -22.92183133 11.92982932 -20.18359375 8.37890625 C-19.48363281 7.42951172 -19.48363281 7.42951172 -18.76953125 6.4609375 C-12.95861169 0.84680207 -7.77776376 -0.0438697 0 0 Z " fill="#FEBD0A" transform="translate(269.80859375,931.43359375)"/>
<path d="M0 0 C0.79795486 -0.00953201 1.59590973 -0.01906403 2.41804504 -0.02888489 C3.27226547 -0.02797348 4.1264859 -0.02706207 5.0065918 -0.02612305 C5.89436813 -0.03040817 6.78214447 -0.0346933 7.69682312 -0.03910828 C9.57375233 -0.04484554 11.45070376 -0.04535628 13.32763672 -0.04101562 C16.18520551 -0.03786452 19.04172972 -0.06129126 21.89916992 -0.08666992 C23.72664258 -0.08894401 25.55411801 -0.0896459 27.3815918 -0.08862305 C28.22973953 -0.09783279 29.07788727 -0.10704254 29.95173645 -0.11653137 C36.52066208 -0.06585527 40.8439441 1.45955912 46.51831055 4.8371582 C50.02578736 8.43693704 51.85196524 12.7228925 53.89331055 17.2746582 C50.50480062 20.89861757 46.48784943 23.02597931 42.20581055 25.4621582 C41.30604492 25.97464111 40.4062793 26.48712402 39.47924805 27.01513672 C30.90690448 31.82427269 22.1737067 36.29877887 13.39331055 40.7121582 C12.72038971 41.05250092 12.04746887 41.39284363 11.35415649 41.74349976 C2.69213707 46.11391168 -5.96727356 49.98326491 -15.10668945 53.2746582 C-18.46121696 46.34675702 -18.63171534 40.11632267 -18.60766602 32.51416016 C-18.60669301 30.34508665 -18.6483956 28.17955117 -18.69262695 26.01098633 C-18.75858181 18.32572536 -18.56397022 12.10560148 -13.10668945 6.2746582 C-9.14562994 2.60343231 -5.4918568 0.03623198 0 0 Z " fill="#FEBD0A" transform="translate(725.106689453125,931.725341796875)"/>
</svg>
